<?xml version="1.0" encoding="UTF-8"?>
<svg width="13px" height="16px" viewBox="0 0 13 16" version="1.1" xmlns="http://www.w3.org/2000/svg" xmlns:xlink="http://www.w3.org/1999/xlink">
    <!-- Generator: sketchtool 49 (51002) - http://www.bohemiancoding.com/sketch -->
    <title>DCDF8715-ADED-4A94-8B66-6C2CB90E6DA3</title>
    <desc>Created with sketchtool.</desc>
    <defs></defs>
    <g id="Đăng-ký-đăng-nhập" stroke="none" stroke-width="1" fill="none" fill-rule="evenodd">
        <g transform="translate(-792.000000, -449.000000)" fill="#CCCCCC" id="Icon">
            <path d="M801.470668,452.995713 C801.470668,453.956056 801.452933,454.89925 801.452933,455.859593 L795.547067,455.859593 L795.547067,452.995713 C795.547067,451.418006 796.628922,451.280815 797.959072,451.280815 L799.076398,451.280815 C800.406548,451.280815 801.470668,451.435155 801.470668,452.995713 L801.470668,452.995713 Z M805,456.991426 C805,456.356913 804.46794,455.859593 803.829468,455.859593 L803.829468,452.995713 C803.829468,449.600214 801.506139,449 798.508868,449 C795.493861,449 793.188267,449.600214 793.188267,452.995713 L793.188267,455.859593 C792.53206,455.859593 792,456.356913 792,456.991426 L792,463.851018 C792,464.485531 792.53206,465 793.188267,465 L803.829468,465 C804.46794,465 805,464.485531 805,463.851018 L805,456.991426 Z"></path>
        </g>
    </g>
</svg>