<?xml version="1.0" encoding="UTF-8"?>
<svg width="16px" height="16px" viewBox="0 0 16 16" version="1.1" xmlns="http://www.w3.org/2000/svg" xmlns:xlink="http://www.w3.org/1999/xlink">
    <!-- Generator: sketchtool 49 (51002) - http://www.bohemiancoding.com/sketch -->
    <title>B9849DE4-6F76-4BBF-B551-40DF4B53AE7B</title>
    <desc>Created with sketchtool.</desc>
    <defs></defs>
    <g id="Đăng-ký-đăng-nhập" stroke="none" stroke-width="1" fill="none" fill-rule="evenodd">
        <g transform="translate(-791.000000, -390.000000)" fill="#CCCCCC" id="Icon">
            <path d="M807,404.285102 C807,403.204716 805.370847,402.604502 804.547696,402.278671 C804.050375,402.072883 803.535906,401.867095 803.038585,401.644159 C802.369775,401.335477 801.683816,400.975348 801.186495,400.409432 C801.015005,400.203644 800.912111,400.066452 800.912111,399.792069 C800.912111,399.397642 801.015005,399.003215 801.10075,398.625938 C801.237942,398.042872 801.529475,397.562701 801.769561,397.013934 C802.043944,396.327974 802.146838,395.607717 802.28403,394.904609 C802.335477,394.595927 802.421222,394.304394 802.421222,393.995713 C802.421222,391.869239 801.306538,390 798.991426,390 C796.676313,390 795.561629,391.869239 795.561629,393.995713 C795.561629,394.304394 795.664523,394.595927 795.71597,394.904609 C795.870311,395.607717 795.956056,396.327974 796.247588,397.013934 C796.487674,397.562701 796.796356,398.042872 796.916399,398.625938 C797.019293,399.003215 797.105038,399.397642 797.105038,399.792069 C797.105038,400.066452 797.002144,400.203644 796.830654,400.409432 C796.333333,400.975348 795.647374,401.335477 794.978564,401.644159 C794.481243,401.884244 793.966774,402.072883 793.469453,402.278671 C792.646302,402.621651 791,403.204716 791,404.285102 L791,406 L807,406 L807,405.005359 L807,404.285102 Z"></path>
        </g>
    </g>
</svg>